<svg xmlns="http://www.w3.org/2000/svg" xmlns:xlink="http://www.w3.org/1999/xlink" width="120" height="120" viewBox="0 0 120 120">
    <defs>
        <path id="gf6l0qx46a" d="M56.875 84.763h3.281c.906 0 1.64-.735 1.64-1.64 0-.907-.734-1.641-1.64-1.641h-3.28c-.906 0-1.641.734-1.641 1.64 0 .906.735 1.64 1.64 1.64zm6.562 18.045c.64.636 1.673.636 2.313 0l2.33-2.314c.643-.643.643-1.686 0-2.329-.644-.643-1.687-.643-2.33 0l-2.313 2.362c-.614.636-.614 1.645 0 2.28zm0-37.09l2.313 2.329c.643.643 1.686.643 2.33 0 .643-.644.643-1.686 0-2.33l-2.363-2.28c-.747-.512-1.768-.32-2.28.428-.382.558-.382 1.294 0 1.852zm1.64 17.404c0 9.966 8.08 18.045 18.045 18.045 9.966 0 18.045-8.079 18.045-18.045 0-9.965-8.079-18.044-18.045-18.044-9.965 0-18.044 8.079-18.044 18.044zm16.405-22.966c0 .906.734 1.64 1.64 1.64.906 0 1.64-.734 1.64-1.64v-3.28c0-.906-.734-1.641-1.64-1.641-.906 0-1.64.735-1.64 1.64v3.281zm16.716 7.89c.638.644 1.677.648 2.32.01l.01-.01 2.28-2.329c.511-.747.32-1.768-.428-2.28-.558-.382-1.294-.382-1.853 0l-2.329 2.313c-.625.638-.625 1.659 0 2.297zm6.25 15.076c0 .906.734 1.64 1.64 1.64h3.281c.906 0 1.64-.734 1.64-1.64 0-.906-.734-1.64-1.64-1.64h-3.28c-.907 0-1.641.734-1.641 1.64zm-1.64 17.405l-2.314-2.329c-.643-.643-1.686-.643-2.329 0-.643.643-.643 1.686 0 2.33l2.362 2.28c.748.511 1.769.32 2.28-.428.383-.558.383-1.294 0-1.853zm-18.045 5.562c0-.907-.735-1.641-1.64-1.641-.907 0-1.641.734-1.641 1.64v3.281c0 .906.734 1.64 1.64 1.64.906 0 1.64-.734 1.64-1.64v-3.28zm-37.73-22.967c0-19.931 16.158-36.09 36.09-36.09 19.931 0 36.089 16.159 36.089 36.09 0 19.932-16.158 36.09-36.09 36.09-19.931 0-36.09-16.158-36.09-36.09zm21.325 0c0-8.153 6.61-14.764 14.764-14.764s14.764 6.61 14.764 14.764-6.61 14.764-14.764 14.764c-8.153 0-14.764-6.61-14.764-14.764z"/>
        <path id="is9z02wnxc" d="M55.878 89.409h-21.31l4.657-18.627h11.996l4.657 18.627zM3.723 60.556l1.173-6.538h17.342l-1.08 13.039H9.31c-3.086.041-5.622-2.427-5.663-5.513-.004-.33.02-.662.075-.988zM12.496 8.4c.45-2.726 2.825-4.713 5.588-4.676h8.42l-1.081 13.04h-14.25L12.496 8.4zm65.455 0l1.397 8.363H65.19l-1.08-13.039h8.42c2.698.045 4.98 2.013 5.42 4.676zm3.185 58.656H69.289l-1.08-13.04H85.55l1.1 6.539c.503 3.045-1.556 5.922-4.6 6.426-.303.05-.608.075-.914.075zm-34.05-13.04h17.379l1.08 13.04h-18.46v-13.04zM27.379 37.255H43.36v13.039H26.298l1.08-13.04zM43.36 20.49v13.038H27.695l1.08-13.038h14.586zm0-3.726H29.092l1.08-13.039h13.189v13.04zm3.725 0V3.725h13.188l1.08 13.04H47.086zM62.75 33.528H47.086V20.49H61.67l1.08 13.038zm19.39 0H66.496l-1.08-13.038h14.547l2.18 13.038zM64.149 50.293H47.086v-13.04h15.982l1.08 13.04zm2.664-13.04h15.944l2.18 13.04H67.892l-1.08-13.04zM10.484 20.49h14.548l-1.08 13.038H8.304l2.18-13.038zM7.69 37.254h15.945l-1.08 13.039H5.584l2.105-13.04zm17.211 29.803l1.174-13.04h17.379v13.04H24.9zm56.235 3.725c5.144-.002 9.311-4.174 9.309-9.318 0-.51-.042-1.02-.126-1.523L81.62 7.786C80.873 3.296 76.99.002 72.437 0H18.009c-4.552.002-8.436 3.295-9.183 7.786L.128 59.941c-.844 5.074 2.585 9.871 7.66 10.715.503.083 1.012.126 1.523.126h26.077L30.731 89.41h-7.86c-1.029 0-1.863.834-1.863 1.863 0 1.028.834 1.862 1.863 1.862h44.704c1.03 0 1.863-.834 1.863-1.862 0-1.029-.834-1.863-1.863-1.863h-7.86l-4.657-18.627h26.078z"/>
    </defs>
    <g fill="none" fill-rule="evenodd">
        <g>
            <g transform="translate(-1073 -1679) translate(1073 1679)">
                <mask id="ntr87sftcb" fill="#fff">
                    <use xlink:href="#gf6l0qx46a"/>
                </mask>
                <use fill="#C2DA78" xlink:href="#gf6l0qx46a"/>
                <g fill="#C2DA78" mask="url(#ntr87sftcb)">
                    <path d="M0 0H73.714V73.714H0z" transform="translate(46.286 46.286)"/>
                </g>
                <mask id="3aw8u8az2d" fill="#fff">
                    <use xlink:href="#is9z02wnxc"/>
                </mask>
                <use fill="#37576B" xlink:href="#is9z02wnxc"/>
                <g fill="#37576B" mask="url(#3aw8u8az2d)">
                    <path d="M0 0H96V96H0z"/>
                </g>
            </g>
        </g>
    </g>
</svg>
