<svg xmlns="http://www.w3.org/2000/svg" xmlns:xlink="http://www.w3.org/1999/xlink" width="120" height="120" viewBox="0 0 120 120">
    <defs>
        <path id="jwcpyoo1wa" d="M91.188 85.418c0-.91-.738-1.648-1.648-1.648-.91 0-1.649.738-1.649 1.648v1.649h1.649c.91 0 1.648-.738 1.648-1.649zm-32.97-2.472c.021 7.469 3.398 14.532 9.199 19.237H78v-11.82h-1.648c-2.731 0-4.946-2.214-4.946-4.945 0-2.73 2.215-4.945 4.946-4.945s4.945 2.214 4.945 4.945v1.649h3.297v-1.649c0-2.73 2.214-4.945 4.946-4.945 2.73 0 4.945 2.214 4.945 4.945 0 2.731-2.214 4.946-4.945 4.946H87.89v11.82h10.583c10.628-8.577 12.29-24.144 3.715-34.772-8.577-10.628-24.144-12.29-34.772-3.714-5.818 4.695-9.2 11.771-9.199 19.248zm18.134.824c-.91 0-1.649.738-1.649 1.648 0 .91.738 1.649 1.649 1.649H78v-1.649c0-.91-.738-1.648-1.648-1.648zm4.945 18.413h3.297v-11.82h-3.297v11.82zm-9.89 12.083c0 2.732 2.214 4.946 4.945 4.946H89.54c2.73 0 4.945-2.214 4.945-4.946v-1.648H71.406v1.648zm0-4.945h23.078v-3.84H71.406v3.84zm-14.111-.725c.64.646 1.684.65 2.33.01l.01-.01 3.528-3.511c.65-.651.65-1.707 0-2.358-.65-.65-1.706-.65-2.357 0l-3.511 3.495c-.656.632-.675 1.675-.044 2.33l.044.044zm48.926-51.334l-3.495 3.545c-.65.65-.65 1.706 0 2.357.651.65 1.707.65 2.358 0l3.511-3.495c.646-.646.646-1.694 0-2.34-.647-.647-1.695-.647-2.34 0l-.034-.067zm-3.495 45.465c-.639.643-.639 1.682 0 2.324l3.495 3.512c.647.646 1.695.646 2.34 0 .647-.646.647-1.694 0-2.34l-3.477-3.496c-.637-.65-1.68-.662-2.332-.026l-.026.026zm-43.09-45.432c-.647-.646-1.695-.646-2.341 0-.647.647-.647 1.695 0 2.341l3.51 3.528c.652.65 1.707.65 2.358 0 .65-.65.65-1.706 0-2.357l-3.528-3.512zM53.4 81.297h-4.945c-.91 0-1.649.738-1.649 1.649 0 .91.738 1.648 1.649 1.648H53.4c.91 0 1.649-.738 1.649-1.648 0-.91-.738-1.649-1.649-1.649zm64.163 0h-4.945c-.91 0-1.648.738-1.648 1.649 0 .91.738 1.648 1.648 1.648h4.945c.91 0 1.649-.738 1.649-1.648 0-.91-.738-1.649-1.649-1.649zM82.946 54.922c-.911 0-1.649-.738-1.649-1.649v-4.945c0-.91.738-1.649 1.649-1.649.91 0 1.648.738 1.648 1.649v4.945c0 .91-.738 1.649-1.648 1.649z"/>
        <path id="750xt5azgc" d="M52.425 16.743L30.23 44.477c-.123.154-.221.326-.292.51-.37.976.121 2.071 1.097 2.442l13.639 5.12-3.99 23.875 22.22-27.765c.122-.153.22-.326.29-.513.178-.473.16-.988-.048-1.448-.21-.46-.585-.812-1.058-.99L48.44 40.585l3.984-23.842zm-11.95 64.302c-.882 0-1.769-.277-2.521-.851-1.244-.949-1.848-2.495-1.576-4.035l3.481-20.834-10.34-3.882c-1.553-.59-2.776-1.743-3.452-3.25-.677-1.507-.726-3.187-.14-4.73.23-.604.55-1.165.954-1.669l22.494-28.107c1.426-1.792 4.052-2.09 5.848-.66 1.173.933 1.755 2.433 1.52 3.913l-3.488 20.87 10.34 3.881c3.193 1.2 4.815 4.771 3.616 7.963-.229.61-.55 1.176-.956 1.684L43.773 79.431c-.819 1.058-2.052 1.614-3.299 1.614zm6.092-76.754c-23.311 0-42.276 18.965-42.276 42.276 0 23.311 18.965 42.277 42.276 42.277 23.311 0 42.277-18.966 42.277-42.277S69.878 4.291 46.567 4.291zm0 88.843C20.89 93.134 0 72.244 0 46.567S20.89 0 46.567 0c25.678 0 46.567 20.89 46.567 46.567 0 25.678-20.89 46.567-46.567 46.567z"/>
    </defs>
    <g fill="none" fill-rule="evenodd">
        <g>
            <g transform="translate(-245 -1679) translate(245 1679)">
                <mask id="7lx1cqhszb" fill="#fff">
                    <use xlink:href="#jwcpyoo1wa"/>
                </mask>
                <use fill="#C2DA78" xlink:href="#jwcpyoo1wa"/>
                <g fill="#C2DA78" mask="url(#7lx1cqhszb)">
                    <path d="M0 0H73.714V73.714H0z" transform="translate(46.286 46.286)"/>
                </g>
                <mask id="0gy6kxlj1d" fill="#fff">
                    <use xlink:href="#750xt5azgc"/>
                </mask>
                <use fill="#37576B" xlink:href="#750xt5azgc"/>
                <g fill="#37576B" mask="url(#0gy6kxlj1d)">
                    <path d="M0 0H96V96H0z"/>
                </g>
            </g>
        </g>
    </g>
</svg>
