<svg xmlns="http://www.w3.org/2000/svg" xmlns:xlink="http://www.w3.org/1999/xlink" width="120" height="120" viewBox="0 0 120 120">
    <defs>
        <path id="5upl7tjyda" d="M99.46 74.918c0 19.024-15.423 34.445-34.447 34.445h-5.888l9.841-9.841h9.17c.905 0 1.64-.734 1.64-1.64 0-.906-.735-1.64-1.64-1.64h-5.889c.18-.165 12.187-12.188 11.482-11.483h7.529c.906 0 1.64-.734 1.64-1.64 0-.906-.734-1.64-1.64-1.64h-4.249l5.413-5.397c.644-.643.644-1.686 0-2.329-.643-.643-1.686-.643-2.329 0l-8.201 8.202-7.037 7.053v-5.889c0-.906-.734-1.64-1.64-1.64-.906 0-1.64.734-1.64 1.64v9.17l-4.446 4.428-10.317 10.334v-5.889c0-19.024 15.422-34.446 34.446-34.446h6.561c.906 0 1.64.735 1.64 1.64v6.562zM83.056 47.033c-19.93.035-36.058 16.22-36.024 36.15.016 8.963 3.367 17.6 9.402 24.229l-8.99 8.988c-.642.643-.642 1.686 0 2.33.644.643 1.687.643 2.33 0l8.989-8.99c14.703 13.455 37.529 12.444 50.983-2.26 13.455-14.702 12.443-37.528-2.26-50.983-6.67-6.104-15.389-9.481-24.43-9.464z"/>
        <path id="8mpy4jtncc" d="M51.472 19.507c17.939.024 32.462 14.216 32.438 31.7-.038 10.942-5.851 21.096-15.386 26.874v16.445c0 4.601-3.827 8.331-8.548 8.331H42.881c-4.72 0-8.548-3.73-8.548-8.33V78.08c-9.578-5.778-15.4-15.98-15.386-26.96.025-17.483 14.586-31.637 32.525-31.614zm13.633 75.02H37.752c0 2.76 2.297 4.998 5.129 4.998h17.095c2.833 0 5.129-2.238 5.129-4.999zm0-8.331H37.752v4.998h27.353v-4.998zM23.697 74.483c1.382 0 2.682.53 3.66 1.491.977.962 1.515 2.24 1.515 3.601 0 1.36-.538 2.64-1.52 3.607l-4.087 4.002-.015.015c-.972.949-2.26 1.471-3.63 1.471-1.372 0-2.661-.524-3.634-1.476l-.107-.106c-.955-.975-1.467-2.258-1.442-3.613.025-1.344.577-2.6 1.554-3.537l4.047-3.964c.978-.962 2.277-1.491 3.66-1.491zm57.26 0c1.382 0 2.68.528 3.651 1.482l4.1 4.009c.978.962 1.518 2.241 1.518 3.602 0 1.36-.54 2.64-1.519 3.602-.979.962-2.28 1.492-3.666 1.492-1.384 0-2.686-.53-3.67-1.497l-4.07-4.017c-2.016-1.981-2.016-5.204 0-7.185.977-.96 2.276-1.488 3.657-1.488zm-57.26 3.192c-.494 0-.988.186-1.365.557l-4.067 3.983c-.76.72-.782 1.91-.05 2.657l.05.05c.373.37.864.555 1.356.555.486 0 .972-.181 1.344-.545l.011-.01 4.087-4.003c.754-.742.754-1.945 0-2.687-.378-.371-.872-.557-1.366-.557zm57.26 0c-.491 0-.982.185-1.357.554-.75.737-.75 1.932 0 2.669l4.074 4.022c.377.371.873.557 1.367.557.496 0 .99-.186 1.368-.557.755-.742.755-1.946 0-2.688l-4.093-4.003c-.375-.369-.867-.553-1.358-.553zm-15.852 1.14H37.752v4.048h27.353v-4.048zm1.248-51.941C52.58 18.84 34.733 23.21 26.49 36.633c-8.242 13.422-3.76 30.816 10.013 38.85H49.72v-7.615h-1.71c-10.385 0-18.804-8.205-18.804-18.328v-3.332c0-.92.765-1.666 1.71-1.666h3.418c7.362.007 14.044 4.2 17.096 10.73 3.052-6.53 9.733-10.723 17.095-10.73h3.419c.944 0 1.71.746 1.71 1.666v3.332c0 10.123-8.42 18.328-18.805 18.328h-1.71v7.614h13.215c4.112-2.398 7.552-5.75 10.013-9.759 8.242-13.423 3.76-30.816-10.013-38.85zm-32.02 21h-1.71v1.666c0 8.282 6.89 14.996 15.387 14.996h1.709V62.87c0-8.282-6.888-14.996-15.386-14.996zm35.9 0h-1.71c-8.497 0-15.385 6.714-15.385 14.996v1.666h1.71c8.497 0 15.385-6.714 15.385-14.996v-1.666zm27.405-1.766c2.878 0 5.22 2.387 5.22 5.32 0 2.934-2.342 5.32-5.22 5.32h-5.802c-2.878 0-5.22-2.386-5.22-5.32 0-2.933 2.342-5.32 5.22-5.32zm-86.617 0c2.878 0 5.22 2.387 5.22 5.32 0 2.934-2.342 5.32-5.22 5.32H5.22c-2.879 0-5.22-2.386-5.22-5.32 0-2.933 2.341-5.32 5.22-5.32zm86.617 3.35h-5.802c-1.068 0-1.934.882-1.934 1.97 0 1.09.866 1.972 1.934 1.972h5.802c1.067 0 1.933-.883 1.933-1.972 0-1.088-.866-1.97-1.933-1.97zm-86.617 0H5.22c-1.068 0-1.934.882-1.934 1.97 0 1.09.866 1.972 1.934 1.972h5.801c1.068 0 1.934-.883 1.934-1.972 0-1.088-.866-1.97-1.934-1.97zm8.586-35.27c1.38 0 2.68.528 3.65 1.482l4.1 4.009c2.02 1.986 2.02 5.217 0 7.203-.98.962-2.282 1.492-3.667 1.492-1.384 0-2.686-.53-3.67-1.497l-4.07-4.017c-.976-.96-1.514-2.235-1.514-3.592 0-1.357.538-2.633 1.514-3.593.977-.96 2.276-1.488 3.657-1.488zm63.646 0c1.382 0 2.68.53 3.657 1.491 2.016 1.987 2.016 5.218-.006 7.21l-4.069 3.99c-.979.964-2.28 1.495-3.666 1.495-1.384 0-2.686-.53-3.666-1.495-.979-.965-1.518-2.248-1.518-3.612 0-1.364.54-2.647 1.518-3.611l.017-.016 4.088-3.972c.976-.955 2.27-1.48 3.645-1.48zM19.607 17.38c-.492 0-.983.184-1.359.552-.75.737-.75 1.932 0 2.67l4.075 4.021c.378.372.873.557 1.367.557.496 0 .99-.185 1.368-.557.756-.742.756-1.945 0-2.687l-4.093-4.004c-.375-.368-.867-.552-1.358-.552zm63.646.008c-.491 0-.983.185-1.358.554l-4.094 3.977c-.755.744-.755 1.95 0 2.695.378.372.873.558 1.368.558.495 0 .99-.186 1.368-.558l4.074-3.996c.75-.739.75-1.937 0-2.676-.374-.37-.866-.554-1.358-.554zM50.526 0c2.985 0 5.414 2.301 5.414 5.13v5.701c0 2.828-2.429 5.13-5.414 5.13s-5.413-2.302-5.413-5.13V5.13C45.113 2.3 47.54 0 50.526 0zm0 3.23c-1.107 0-2.005.85-2.005 1.9v5.701c0 1.05.898 1.9 2.005 1.9 1.108 0 2.006-.85 2.006-1.9V5.13c0-1.05-.898-1.9-2.006-1.9z"/>
    </defs>
    <g fill="none" fill-rule="evenodd">
        <g>
            <g transform="translate(-660 -1679) translate(660 1679)">
                <mask id="m0m5r1kqbb" fill="#fff">
                    <use xlink:href="#5upl7tjyda"/>
                </mask>
                <use fill="#C2DA78" xlink:href="#5upl7tjyda"/>
                <g fill="#C2DA78" mask="url(#m0m5r1kqbb)">
                    <path d="M0 0H73.714V73.714H0z" transform="translate(46.286 46.286)"/>
                </g>
                <mask id="j0gmpu1n8d" fill="#fff">
                    <use xlink:href="#8mpy4jtncc"/>
                </mask>
                <use fill="#37576B" xlink:href="#8mpy4jtncc"/>
                <g fill="#37576B" mask="url(#j0gmpu1n8d)">
                    <path d="M0 0H102.857V102.857H0z"/>
                </g>
            </g>
        </g>
    </g>
</svg>
