<svg xmlns="http://www.w3.org/2000/svg" xmlns:xlink="http://www.w3.org/1999/xlink" width="286" height="60" viewBox="0 0 286 60">
    <defs>
        <path id="uh68asq4ya" d="M0 59.786L285.362 59.786 285.362 0 0 0z"/>
    </defs>
    <g fill="none" fill-rule="evenodd">
        <g>
            <g transform="translate(-216 -40) translate(216 40)">
                <path fill="#37576B" d="M.233 38.416c0-.369.047-.737.093-1.062h7.6v.278c0 1.245 1.83 2.077 3.753 2.077 1.736 0 3.8-.416 3.8-1.986 0-3.784-15.246.186-15.246-9.786 0-4.938 4.785-7.848 11.07-7.848 7.74 0 11.353 2.863 11.353 7.063 0 .277 0 .51-.047.785h-7.6s.047-.139.047-.322c0-.924-.89-2.031-3.753-2.031-2.016 0-3.471.414-3.471 1.94 0 3.783 15.246-.187 15.246 9.738 0 4.939-4.503 7.94-11.4 7.94-9.053 0-11.445-3.693-11.445-6.786M44.518 32.647c0-4.477-2.252-6.602-5.63-6.602-3.47 0-5.535 2.125-5.535 6.602s2.158 6.6 5.63 6.6c3.377 0 5.535-2.123 5.535-6.6m-19.093 0c0-8.494 5.676-12.558 13.51-12.558 7.881 0 13.51 4.064 13.51 12.558 0 8.493-5.629 12.555-13.51 12.555-7.834 0-13.51-4.062-13.51-12.555M55.26 38.416c0-.369.048-.737.095-1.062h7.599v.278c0 1.245 1.83 2.077 3.753 2.077 1.735 0 3.8-.416 3.8-1.986 0-3.784-15.246.186-15.246-9.786 0-4.938 4.785-7.848 11.07-7.848 7.741 0 11.353 2.863 11.353 7.063 0 .277 0 .51-.047.785h-7.6s.047-.139.047-.322c0-.924-.891-2.031-3.752-2.031-2.018 0-3.472.414-3.472 1.94 0 3.783 15.246-.187 15.246 9.738 0 4.939-4.504 7.94-11.399 7.94-9.054 0-11.446-3.693-11.446-6.786M85.003 44.555L85.003 27.152 79.984 27.152 79.984 20.735 85.003 20.735 85.003 14.366 92.697 14.366 92.697 20.735 98.654 20.735 98.654 27.152 92.697 27.152 92.697 44.555zM117.841 29.784c-.515-3.001-2.861-4.2-5.113-4.2-2.299 0-4.457 1.523-5.113 4.2h10.226zm-18.013 2.863c0-8.495 5.395-12.558 13.369-12.558 7.506 0 12.244 4.385 12.244 11.773 0 .876-.047 1.8-.188 2.768h-17.779c.47 3.37 2.627 5.08 5.63 5.08 1.829 0 3.377-.694 4.222-1.848h7.505c-1.407 4.247-5.442 7.34-11.634 7.34-8.115 0-13.37-4.2-13.37-12.555zM129.242 44.555v-13.34c0-7.848 4.785-11.126 12.572-11.126 7.787 0 12.572 3.278 12.572 11.126v13.34h-7.694v-13.34c0-2.91-1.5-4.707-4.878-4.707s-4.88 1.798-4.88 4.707v13.34h-7.692z"/>
                <mask id="vwod2tdp2b" fill="#fff">
                    <use xlink:href="#uh68asq4ya"/>
                </mask>
                <path fill="#37576B" d="M159.078 44.555h7.693v-23.82h-7.693v23.82zm-.516-30.42c0-2.493 1.83-4.293 4.362-4.293 2.534 0 4.363 1.8 4.363 4.294 0 2.491-1.83 4.291-4.363 4.291-2.533 0-4.362-1.8-4.362-4.291zM190.086 32.647c0-4.341-2.299-6.372-5.535-6.372-3.331 0-5.63 2.585-5.63 6.372 0 3.784 2.299 6.369 5.63 6.369 3.236 0 5.535-2.03 5.535-6.37m-10.461 8.955h-.47l-.468 2.954h-7.225V11.598h7.694V23.69h.469c1.642-2.261 3.706-3.6 7.553-3.6 5.535 0 10.836 4.016 10.836 12.557 0 8.585-5.3 12.555-10.836 12.555-3.847 0-5.911-1.384-7.553-3.6M201.768 44.555L209.461 44.555 209.461 20.735 201.768 20.735zM214.152 44.555L221.845 44.555 221.845 11.598 214.152 11.598zM226.537 44.555h7.693v-23.82h-7.693v23.82zm-.516-30.42c0-2.493 1.83-4.293 4.362-4.293 2.534 0 4.363 1.8 4.363 4.294 0 2.491-1.829 4.291-4.363 4.291-2.533 0-4.362-1.8-4.362-4.291zM242.533 44.555L242.533 27.152 237.514 27.152 237.514 20.735 242.533 20.735 242.533 14.366 250.227 14.366 250.227 20.735 256.184 20.735 256.184 27.152 250.227 27.152 250.227 44.555zM209.373 16.245h-2.752c-8.886 0-16.116-7.114-16.116-15.858V0h2.752c8.886 0 16.116 7.114 16.116 15.859v.386zM.727 55.671h1.502c1.009 0 1.356-.524 1.356-1.112 0-.604-.347-1.089-1.356-1.089H.727v2.201zM0 58.507v-5.672h2.22c1.599 0 2.107.739 2.107 1.605 0 .69-.242 1.223-1.025 1.47v.079c.678.182.92.627 1.09 1.358l.283 1.16h-.743l-.267-1.112c-.137-.58-.347-1.089-1.396-1.089H.727v2.201H0zM6.651 58.507L7.377 58.507 7.377 52.835 6.651 52.835zM14.222 55.671c0-1.486-.767-2.312-2.059-2.312-1.299 0-2.058.826-2.058 2.312 0 1.486.759 2.312 2.058 2.312 1.292 0 2.06-.826 2.06-2.312zm.541 4.115l-2.115-1.2c-.153.025-.314.032-.485.032-1.752 0-2.809-1.056-2.809-2.947 0-1.89 1.057-2.947 2.81-2.947 1.744 0 2.801 1.056 2.801 2.947 0 1.287-.492 2.121-1.356 2.558v.08l1.518.866-.364.61zM16.932 56.37v-3.535h.727v3.543c0 1.105.638 1.605 1.72 1.605 1.098 0 1.711-.5 1.711-1.605v-3.543h.727v3.535c0 1.565-.872 2.248-2.438 2.248-1.542 0-2.447-.683-2.447-2.248M24.907 56.45h2.333l-1.122-2.765h-.08l-1.131 2.765zm-1.599 2.057l2.358-5.672h.848l2.357 5.672h-.816l-.573-1.422h-2.817l-.573 1.422h-.784zM30.443 58.507L30.443 52.835 31.17 52.835 31.17 57.872 34.278 57.872 34.278 58.507zM36.093 58.507L36.819 58.507 36.819 52.835 36.093 52.835zM38.958 58.507L38.958 52.835 42.833 52.835 42.833 53.47 39.685 53.47 39.685 55.591 42.47 55.591 42.47 56.227 39.685 56.227 39.685 58.507zM44.728 58.507L45.455 58.507 45.455 52.835 44.728 52.835zM47.432 55.679c0-1.986 1.179-2.955 2.737-2.955 1.26 0 2.342.722 2.495 1.954h-.743c-.153-.835-.888-1.32-1.752-1.32-1.146 0-1.986.755-1.986 2.32 0 1.55.84 2.305 1.986 2.305.864 0 1.599-.485 1.752-1.327h.743c-.153 1.255-1.235 1.962-2.495 1.962-1.558 0-2.737-.97-2.737-2.94M55.503 56.45h2.333l-1.121-2.765h-.081l-1.13 2.765zm-1.598 2.057l2.357-5.672h.848l2.358 5.672h-.816l-.573-1.422H55.26l-.573 1.422h-.783zM60.959 58.507L60.959 57.872 64.39 53.55 64.39 53.47 60.959 53.47 60.959 52.835 65.359 52.835 65.359 53.47 61.935 57.792 61.935 57.872 65.359 57.872 65.359 58.507zM67.335 58.507L68.062 58.507 68.062 52.835 67.335 52.835zM74.907 55.671c0-1.486-.767-2.312-2.059-2.312-1.3 0-2.059.826-2.059 2.312 0 1.486.76 2.312 2.06 2.312 1.29 0 2.058-.826 2.058-2.312m-4.869 0c0-1.89 1.058-2.947 2.81-2.947 1.744 0 2.802 1.056 2.802 2.947 0 1.89-1.058 2.947-2.802 2.947-1.752 0-2.81-1.056-2.81-2.947M77.625 58.507L77.625 52.835 78.433 52.835 81.703 57.308 81.783 57.308 81.783 52.835 82.51 52.835 82.51 58.507 81.703 58.507 78.433 54.034 78.352 54.034 78.352 58.507zM84.647 58.507L84.647 52.835 88.684 52.835 88.684 53.47 85.373 53.47 85.373 55.353 88.32 55.353 88.32 55.989 85.373 55.989 85.373 57.872 88.724 57.872 88.724 58.507zM94.21 58.507L94.21 52.835 98.247 52.835 98.247 53.47 94.937 53.47 94.937 55.353 97.884 55.353 97.884 55.989 94.937 55.989 94.937 57.872 98.288 57.872 98.288 58.507zM100.264 58.507L100.264 52.835 101.071 52.835 104.341 57.308 104.421 57.308 104.421 52.835 105.149 52.835 105.149 58.507 104.341 58.507 101.071 54.034 100.99 54.034 100.99 58.507zM107.285 58.507L107.285 52.835 111.322 52.835 111.322 53.47 108.012 53.47 108.012 55.353 110.959 55.353 110.959 55.989 108.012 55.989 108.012 57.872 111.363 57.872 111.363 58.507zM114.065 55.671h1.502c1.01 0 1.356-.524 1.356-1.112 0-.604-.347-1.089-1.356-1.089h-1.502v2.201zm-.727 2.836v-5.672h2.221c1.598 0 2.107.739 2.107 1.605 0 .69-.242 1.223-1.025 1.47v.079c.678.182.92.627 1.09 1.358l.282 1.16h-.743l-.266-1.112c-.137-.58-.347-1.089-1.396-1.089h-1.543v2.201h-.727zM119.545 55.679c0-2.01 1.195-2.955 2.753-2.955 1.26 0 2.293.722 2.47 1.954h-.742c-.122-.826-.88-1.32-1.728-1.32-1.163 0-2.002.74-2.002 2.32 0 1.566.831 2.305 2.002 2.305.84 0 1.76-.509 1.808-1.581v-.088h-1.792v-.635h2.52v2.828h-.647l-.08-.683h-.081c-.5.564-1.187.794-1.809.794-1.486 0-2.672-.953-2.672-2.94M126.97 58.507L126.97 52.835 131.007 52.835 131.007 53.47 127.697 53.47 127.697 55.353 130.644 55.353 130.644 55.989 127.697 55.989 127.697 57.872 131.047 57.872 131.047 58.507zM134.598 58.507L134.598 53.47 132.66 53.47 132.66 52.835 137.27 52.835 137.27 53.47 135.324 53.47 135.324 58.507zM139.044 58.507L139.771 58.507 139.771 52.835 139.044 52.835zM141.748 55.679c0-1.986 1.178-2.955 2.736-2.955 1.26 0 2.342.722 2.496 1.954h-.744c-.153-.835-.887-1.32-1.752-1.32-1.146 0-1.985.755-1.985 2.32 0 1.55.84 2.305 1.985 2.305.865 0 1.6-.485 1.752-1.327h.744c-.154 1.255-1.236 1.962-2.496 1.962-1.558 0-2.736-.97-2.736-2.94M149.82 56.45h2.333l-1.123-2.765h-.08l-1.13 2.765zm-1.6 2.057l2.358-5.672h.848l2.358 5.672h-.816l-.574-1.422h-2.817l-.573 1.422h-.784zM158.866 58.507L158.866 52.835 159.593 52.835 159.593 55.353 163.024 55.353 163.024 52.835 163.751 52.835 163.751 58.507 163.024 58.507 163.024 55.989 159.593 55.989 159.593 58.507zM165.888 58.507L166.614 58.507 166.614 52.835 165.888 52.835zM173.838 58.507L173.838 53.47 171.9 53.47 171.9 52.835 176.51 52.835 176.51 53.47 174.564 53.47 174.564 58.507zM178.284 58.507L178.284 52.835 182.321 52.835 182.321 53.47 179.011 53.47 179.011 55.353 181.958 55.353 181.958 55.989 179.011 55.989 179.011 57.872 182.362 57.872 182.362 58.507zM183.982 55.679c0-1.986 1.18-2.955 2.737-2.955 1.26 0 2.342.722 2.496 1.954h-.744c-.153-.835-.887-1.32-1.752-1.32-1.146 0-1.986.755-1.986 2.32 0 1.55.84 2.305 1.986 2.305.865 0 1.6-.485 1.752-1.327h.744c-.154 1.255-1.236 1.962-2.496 1.962-1.558 0-2.737-.97-2.737-2.94M191.166 58.507L191.166 52.835 191.892 52.835 191.892 55.353 195.323 55.353 195.323 52.835 196.05 52.835 196.05 58.507 195.323 58.507 195.323 55.989 191.892 55.989 191.892 58.507zM201.698 58.507L201.698 52.835 205.735 52.835 205.735 53.47 202.424 53.47 202.424 55.353 205.372 55.353 205.372 55.989 202.424 55.989 202.424 57.872 205.775 57.872 205.775 58.507zM211.262 58.507L211.262 52.835 215.299 52.835 215.299 53.47 211.988 53.47 211.988 55.353 214.935 55.353 214.935 55.989 211.988 55.989 211.988 57.872 215.339 57.872 215.339 58.507zM217.048 56.934v-.111h.727v.071c0 .612.444 1.105 1.575 1.105 1.106 0 1.574-.437 1.574-1.01 0-1.509-3.714-.389-3.714-2.645 0-.89.67-1.62 2.14-1.62 1.558 0 2.163.77 2.163 1.715v.08h-.726v-.064c0-.644-.396-1.112-1.437-1.112-.978 0-1.397.437-1.397.993 0 1.581 3.714.461 3.714 2.662 0 .866-.72 1.62-2.301 1.62-1.631 0-2.318-.77-2.318-1.684M225.096 58.507L225.096 53.47 223.158 53.47 223.158 52.835 227.768 52.835 227.768 53.47 225.823 53.47 225.823 58.507zM229.542 58.507L229.542 52.835 233.579 52.835 233.579 53.47 230.269 53.47 230.269 55.353 233.216 55.353 233.216 55.989 230.269 55.989 230.269 57.872 233.619 57.872 233.619 58.507zM237.17 58.507L237.17 53.47 235.232 53.47 235.232 52.835 239.842 52.835 239.842 53.47 237.896 53.47 237.896 58.507zM241.616 58.507L242.343 58.507 242.343 52.835 241.616 52.835zM244.32 55.679c0-1.986 1.178-2.955 2.736-2.955 1.26 0 2.342.722 2.496 1.954h-.744c-.153-.835-.887-1.32-1.752-1.32-1.146 0-1.985.755-1.985 2.32 0 1.55.84 2.305 1.985 2.305.865 0 1.6-.485 1.752-1.327h.744c-.154 1.255-1.236 1.962-2.496 1.962-1.558 0-2.736-.97-2.736-2.94M252.391 56.45h2.334l-1.123-2.765h-.08l-1.13 2.765zm-1.599 2.057l2.358-5.672h.848l2.358 5.672h-.816l-.574-1.422h-2.817l-.573 1.422h-.784zM261.21 58.566L269.681 58.566 285.362 20.735 277.342 20.735 271.712 35.693 271.243 35.693 265.614 20.735 257.123 20.735 267.048 44.555z" mask="url(#vwod2tdp2b)"/>
            </g>
        </g>
    </g>
</svg>
