<svg xmlns="http://www.w3.org/2000/svg" xmlns:xlink="http://www.w3.org/1999/xlink" width="352" height="75" viewBox="0 0 352 75">
    <defs>
        <path id="jbahqyqcua" d="M0 74.733L351.215 74.733 351.215 0 0 0z"/>
    </defs>
    <g fill="none" fill-rule="evenodd">
        <g>
            <g transform="translate(-851 -243) translate(851 243)">
                <path fill="#FFF" d="M.286 48.02c0-.46.058-.922.116-1.327h9.353v.346c0 1.557 2.252 2.598 4.62 2.598 2.135 0 4.676-.52 4.676-2.483 0-4.73-18.765.232-18.765-12.233 0-6.173 5.89-9.81 13.626-9.81 9.527 0 13.973 3.579 13.973 8.829 0 .347 0 .637-.059.98h-9.353s.058-.172.058-.402c0-1.154-1.097-2.538-4.62-2.538-2.481 0-4.272.517-4.272 2.424 0 4.73 18.765-.233 18.765 12.174 0 6.173-5.543 9.924-14.03 9.924-11.143 0-14.088-4.615-14.088-8.481M54.79 40.808c0-5.596-2.77-8.252-6.927-8.252-4.273 0-6.813 2.656-6.813 8.252s2.656 8.25 6.928 8.25c4.157 0 6.813-2.654 6.813-8.25m-23.499 0c0-10.617 6.986-15.696 16.629-15.696 9.699 0 16.628 5.079 16.628 15.696S57.62 56.502 47.92 56.502c-9.643 0-16.629-5.077-16.629-15.694M68.013 48.02c0-.46.058-.922.116-1.327h9.353v.346c0 1.557 2.252 2.598 4.62 2.598 2.135 0 4.675-.52 4.675-2.483 0-4.73-18.764.232-18.764-12.233 0-6.173 5.89-9.81 13.626-9.81 9.527 0 13.972 3.579 13.972 8.829 0 .347 0 .637-.057.98H86.2s.058-.172.058-.402c0-1.154-1.097-2.538-4.62-2.538-2.482 0-4.272.517-4.272 2.424 0 4.73 18.765-.233 18.765 12.174 0 6.173-5.543 9.924-14.03 9.924-11.143 0-14.088-4.615-14.088-8.481M104.619 55.694L104.619 33.94 98.442 33.94 98.442 25.919 104.619 25.919 104.619 17.958 114.089 17.958 114.089 25.919 121.421 25.919 121.421 33.94 114.089 33.94 114.089 55.694zM145.036 37.23c-.635-3.751-3.522-5.25-6.293-5.25-2.83 0-5.486 1.904-6.294 5.25h12.587zm-22.171 3.578c0-10.617 6.64-15.696 16.454-15.696 9.238 0 15.07 5.481 15.07 14.715 0 1.096-.058 2.25-.231 3.46h-21.882c.577 4.214 3.233 6.35 6.928 6.35 2.252 0 4.157-.867 5.197-2.31h9.237c-1.732 5.31-6.698 9.176-14.319 9.176-9.988 0-16.454-5.25-16.454-15.695zM159.067 55.694V39.02c0-9.81 5.89-13.907 15.473-13.907 9.584 0 15.474 4.097 15.474 13.907v16.675h-9.47V39.02c0-3.637-1.847-5.885-6.004-5.885s-6.005 2.248-6.005 5.885v16.675h-9.468z"/>
                <mask id="w6ttlyyckb" fill="#fff">
                    <use xlink:href="#jbahqyqcua"/>
                </mask>
                <path fill="#FFF" d="M195.788 55.694h9.468V25.92h-9.468v29.775zm-.635-38.024c0-3.117 2.252-5.368 5.37-5.368 3.117 0 5.369 2.251 5.369 5.368 0 3.114-2.252 5.364-5.37 5.364-3.117 0-5.37-2.25-5.37-5.364zM233.952 40.808c0-5.426-2.829-7.964-6.813-7.964-4.1 0-6.928 3.231-6.928 7.964 0 4.73 2.829 7.962 6.928 7.962 3.984 0 6.813-2.539 6.813-7.962m-12.875 11.194h-.578l-.577 3.692h-8.891V14.497h9.468v15.115h.578c2.02-2.826 4.56-4.5 9.296-4.5 6.812 0 13.337 5.02 13.337 15.696 0 10.732-6.525 15.694-13.337 15.694-4.735 0-7.275-1.73-9.296-4.5M248.329 55.694L257.798 55.694 257.798 25.919 248.329 25.919zM263.572 55.694L273.04 55.694 273.04 14.497 263.572 14.497zM278.815 55.694h9.468V25.92h-9.468v29.775zm-.635-38.024c0-3.117 2.251-5.368 5.369-5.368s5.37 2.251 5.37 5.368c0 3.114-2.252 5.364-5.37 5.364-3.118 0-5.37-2.25-5.37-5.364zM298.503 55.694L298.503 33.94 292.325 33.94 292.325 25.919 298.503 25.919 298.503 17.958 307.972 17.958 307.972 25.919 315.304 25.919 315.304 33.94 307.972 33.94 307.972 55.694zM257.69 20.307h-3.387c-10.937 0-19.835-8.893-19.835-19.824V0h3.386c10.938 0 19.836 8.893 19.836 19.823v.484zM321.49 73.207L331.915 73.207 351.215 25.919 341.343 25.919 334.415 44.616 333.837 44.616 326.909 25.919 316.459 25.919 328.675 55.694z" mask="url(#w6ttlyyckb)"/>
            </g>
        </g>
    </g>
</svg>
