<?xml version="1.0" encoding="utf-8"?>
<!-- Generator: Adobe Illustrator 25.3.1, SVG Export Plug-In . SVG Version: 6.00 Build 0)  -->
<svg version="1.1" id="Layer_1" xmlns="http://www.w3.org/2000/svg" xmlns:xlink="http://www.w3.org/1999/xlink" x="0px" y="0px"
	 viewBox="0 0 850 250" style="enable-background:new 0 0 850 250;" xml:space="preserve">
<style type="text/css">
	.st0{fill:#37576B;}
</style>
<path class="st0" d="M60.6,147.4c0-1,0.1-1.9,0.2-2.8h19.4v0.7c0,3.2,4.7,5.4,9.6,5.4c4.4,0,9.7-1.1,9.7-5.2c0-9.8-39,0.5-39-25.4
	c0-12.8,12.2-20.4,28.3-20.4c19.8,0,29,7.4,29,18.4c0,0.7,0,1.3-0.1,2H98.4c0,0,0.1-0.4,0.1-0.8c0-2.4-2.3-5.3-9.6-5.3
	c-5.2,0-8.9,1.1-8.9,5c0,9.8,39-0.5,39,25.3c0,12.8-11.5,20.6-29.2,20.6C66.7,165,60.6,155.4,60.6,147.4"/>
<path class="st0" d="M125,132.4c0-22.1,14.5-32.6,34.6-32.6c20.2,0,34.6,10.6,34.6,32.6c0,22.1-14.4,32.6-34.6,32.6
	C139.6,165,125,154.5,125,132.4 M173.9,132.4c0-11.6-5.8-17.2-14.4-17.2c-8.9,0-14.2,5.5-14.2,17.2c0,11.6,5.5,17.2,14.4,17.2
	C168.4,149.5,173.9,144,173.9,132.4"/>
<path class="st0" d="M201.4,147.4c0-1,0.1-1.9,0.2-2.8H221v0.7c0,3.2,4.7,5.4,9.6,5.4c4.4,0,9.7-1.1,9.7-5.2c0-9.8-39,0.5-39-25.4
	c0-12.8,12.2-20.4,28.3-20.4c19.8,0,29,7.4,29,18.4c0,0.7,0,1.3-0.1,2h-19.4c0,0,0.1-0.4,0.1-0.8c0-2.4-2.3-5.3-9.6-5.3
	c-5.2,0-8.9,1.1-8.9,5c0,9.8,39-0.5,39,25.3c0,12.8-11.5,20.6-29.2,20.6C207.5,165,201.4,155.4,201.4,147.4"/>
<polygon class="st0" points="277.5,163.3 277.5,118.1 264.6,118.1 264.6,101.4 277.5,101.4 277.5,84.8 297.1,84.8 297.1,101.4 
	312.4,101.4 312.4,118.1 297.1,118.1 297.1,163.3 "/>
<path class="st0" d="M315.4,132.4c0-22.1,13.8-32.6,34.2-32.6c19.2,0,31.3,11.4,31.3,30.6c0,2.3-0.1,4.7-0.5,7.2h-45.5
	c1.2,8.8,6.7,13.2,14.4,13.2c4.7,0,8.6-1.8,10.8-4.8h19.2c-3.6,11-13.9,19.1-29.8,19.1C328.8,165,315.4,154.1,315.4,132.4
	 M361.5,124.9c-1.3-7.8-7.3-10.9-13.1-10.9c-5.9,0-11.4,4-13.1,10.9H361.5z"/>
<path class="st0" d="M390.6,163.3v-34.7c0-20.4,12.2-28.9,32.2-28.9c19.9,0,32.2,8.5,32.2,28.9v34.7h-19.7v-34.7
	c0-7.6-3.8-12.2-12.5-12.2c-8.6,0-12.5,4.7-12.5,12.2v34.7H390.6z"/>
<path class="st0" d="M465.6,84.2c0-6.5,4.7-11.2,11.2-11.2c6.5,0,11.2,4.7,11.2,11.2c0,6.5-4.7,11.2-11.2,11.2
	C470.3,95.4,465.6,90.7,465.6,84.2 M466.9,101.4h19.7v61.9h-19.7V101.4z"/>
<path class="st0" d="M519.5,155.7h-1.2l-1.2,7.7h-18.5V77.7h19.7v31.4h1.2c4.2-5.9,9.5-9.4,19.3-9.4c14.2,0,27.7,10.4,27.7,32.6
	c0,22.3-13.6,32.6-27.7,32.6C529,165,523.7,161.4,519.5,155.7 M546.3,132.4c0-11.3-5.9-16.6-14.2-16.6c-8.5,0-14.4,6.7-14.4,16.6
	c0,9.8,5.9,16.6,14.4,16.6C540.4,148.9,546.3,143.6,546.3,132.4"/>
<rect x="576.2" y="101.4" class="st0" width="19.7" height="61.9"/>
<rect x="607.8" y="77.6" class="st0" width="19.7" height="85.7"/>
<path class="st0" d="M638.2,84.2c0-6.5,4.7-11.2,11.2-11.2c6.5,0,11.2,4.7,11.2,11.2c0,6.5-4.7,11.2-11.2,11.2
	C642.9,95.4,638.2,90.7,638.2,84.2 M639.5,101.4h19.7v61.9h-19.7V101.4z"/>
<polygon class="st0" points="680.4,163.3 680.4,118.1 667.6,118.1 667.6,101.4 680.4,101.4 680.4,84.8 700.1,84.8 700.1,101.4 
	715.4,101.4 715.4,118.1 700.1,118.1 700.1,163.3 "/>
<path class="st0" d="M595.6,89.7h-7c-22.7,0-41.2-18.5-41.2-41.2v-1h7c22.7,0,41.2,18.5,41.2,41.2V89.7z"/>
<path class="st0" d="M60,199.6v-14.7h5.7c4.1,0,5.4,1.9,5.4,4.2c0,1.8-0.6,3.2-2.6,3.8v0.2c1.7,0.5,2.4,1.6,2.8,3.5l0.7,3h-1.9
	l-0.7-2.9c-0.4-1.5-0.9-2.8-3.6-2.8h-3.9v5.7H60z M61.9,192.2h3.8c2.6,0,3.5-1.4,3.5-2.9c0-1.6-0.9-2.8-3.5-2.8h-3.8V192.2z"/>
<rect x="77" y="184.9" class="st0" width="1.9" height="14.7"/>
<path class="st0" d="M97.8,202.9l-5.4-3.1c-0.4,0.1-0.8,0.1-1.2,0.1c-4.5,0-7.2-2.7-7.2-7.7c0-4.9,2.7-7.7,7.2-7.7
	c4.5,0,7.2,2.7,7.2,7.7c0,3.3-1.3,5.5-3.5,6.7v0.2l3.9,2.3L97.8,202.9z M96.4,192.2c0-3.9-2-6-5.3-6c-3.3,0-5.3,2.1-5.3,6
	c0,3.9,1.9,6,5.3,6C94.4,198.2,96.4,196.1,96.4,192.2"/>
<path class="st0" d="M103.3,194v-9.2h1.9v9.2c0,2.9,1.6,4.2,4.4,4.2c2.8,0,4.4-1.3,4.4-4.2v-9.2h1.9v9.2c0,4.1-2.2,5.8-6.2,5.8
	C105.6,199.9,103.3,198.1,103.3,194"/>
<path class="st0" d="M119.6,199.6l6-14.7h2.2l6,14.7h-2.1l-1.5-3.7h-7.2l-1.5,3.7H119.6z M123.7,194.3h6l-2.9-7.2h-0.2L123.7,194.3z
	"/>
<polygon class="st0" points="137.9,199.6 137.9,184.9 139.7,184.9 139.7,198 147.7,198 147.7,199.6 "/>
<rect x="152.3" y="184.9" class="st0" width="1.9" height="14.7"/>
<polygon class="st0" points="159.7,199.6 159.7,184.9 169.6,184.9 169.6,186.5 161.5,186.5 161.5,192 168.6,192 168.6,193.7 
	161.5,193.7 161.5,199.6 "/>
<rect x="174.4" y="184.9" class="st0" width="1.9" height="14.7"/>
<path class="st0" d="M181.3,192.2c0-5.2,3-7.7,7-7.7c3.2,0,6,1.9,6.4,5.1h-1.9c-0.4-2.2-2.3-3.4-4.5-3.4c-2.9,0-5.1,2-5.1,6
	c0,4,2.1,6,5.1,6c2.2,0,4.1-1.3,4.5-3.4h1.9c-0.4,3.3-3.2,5.1-6.4,5.1C184.4,199.9,181.3,197.4,181.3,192.2"/>
<path class="st0" d="M197.9,199.6l6-14.7h2.2l6,14.7H210l-1.5-3.7h-7.2l-1.5,3.7H197.9z M202,194.3h6l-2.9-7.2h-0.2L202,194.3z"/>
<polygon class="st0" points="215.9,199.6 215.9,198 224.7,186.7 224.7,186.5 215.9,186.5 215.9,184.9 227.2,184.9 227.2,186.5 
	218.4,197.7 218.4,198 227.2,198 227.2,199.6 "/>
<rect x="232.3" y="184.9" class="st0" width="1.9" height="14.7"/>
<path class="st0" d="M239.2,192.2c0-4.9,2.7-7.7,7.2-7.7c4.5,0,7.2,2.7,7.2,7.7c0,4.9-2.7,7.7-7.2,7.7
	C241.9,199.9,239.2,197.1,239.2,192.2 M251.6,192.2c0-3.9-2-6-5.3-6c-3.3,0-5.3,2.1-5.3,6c0,3.9,1.9,6,5.3,6
	C249.7,198.2,251.6,196.1,251.6,192.2"/>
<polygon class="st0" points="258.6,199.6 258.6,184.9 260.6,184.9 269,196.5 269.2,196.5 269.2,184.9 271.1,184.9 271.1,199.6 
	269,199.6 260.6,188 260.4,188 260.4,199.6 "/>
<polygon class="st0" points="276.5,199.6 276.5,184.9 286.9,184.9 286.9,186.5 278.4,186.5 278.4,191.4 285.9,191.4 285.9,193.1 
	278.4,193.1 278.4,198 287,198 287,199.6 "/>
<polygon class="st0" points="301,199.6 301,184.9 311.3,184.9 311.3,186.5 302.9,186.5 302.9,191.4 310.4,191.4 310.4,193.1 
	302.9,193.1 302.9,198 311.4,198 311.4,199.6 "/>
<polygon class="st0" points="316.5,199.6 316.5,184.9 318.6,184.9 326.9,196.5 327.1,196.5 327.1,184.9 329,184.9 329,199.6 
	326.9,199.6 318.6,188 318.3,188 318.3,199.6 "/>
<polygon class="st0" points="334.5,199.6 334.5,184.9 344.8,184.9 344.8,186.5 336.3,186.5 336.3,191.4 343.8,191.4 343.8,193.1 
	336.3,193.1 336.3,198 344.9,198 344.9,199.6 "/>
<path class="st0" d="M349.9,199.6v-14.7h5.7c4.1,0,5.4,1.9,5.4,4.2c0,1.8-0.6,3.2-2.6,3.8v0.2c1.7,0.5,2.4,1.6,2.8,3.5l0.7,3H360
	l-0.7-2.9c-0.4-1.5-0.9-2.8-3.6-2.8h-3.9v5.7H349.9z M351.8,192.2h3.8c2.6,0,3.5-1.4,3.5-2.9c0-1.6-0.9-2.8-3.5-2.8h-3.8V192.2z"/>
<path class="st0" d="M365.8,192.2c0-5.2,3.1-7.7,7-7.7c3.2,0,5.9,1.9,6.3,5.1h-1.9c-0.3-2.1-2.3-3.4-4.4-3.4c-3,0-5.1,1.9-5.1,6
	c0,4.1,2.1,6,5.1,6c2.1,0,4.5-1.3,4.6-4.1v-0.2h-4.6v-1.7h6.4v7.4h-1.7l-0.2-1.8h-0.2c-1.3,1.5-3,2.1-4.6,2.1
	C368.8,199.9,365.8,197.4,365.8,192.2"/>
<polygon class="st0" points="384.8,199.6 384.8,184.9 395.1,184.9 395.1,186.5 386.7,186.5 386.7,191.4 394.2,191.4 394.2,193.1 
	386.7,193.1 386.7,198 395.2,198 395.2,199.6 "/>
<polygon class="st0" points="404.3,199.6 404.3,186.5 399.4,186.5 399.4,184.9 411.2,184.9 411.2,186.5 406.2,186.5 406.2,199.6 "/>
<rect x="415.7" y="184.9" class="st0" width="1.9" height="14.7"/>
<path class="st0" d="M422.6,192.2c0-5.2,3-7.7,7-7.7c3.2,0,6,1.9,6.4,5.1h-1.9c-0.4-2.2-2.3-3.4-4.5-3.4c-2.9,0-5.1,2-5.1,6
	c0,4,2.1,6,5.1,6c2.2,0,4.1-1.3,4.5-3.4h1.9c-0.4,3.3-3.2,5.1-6.4,5.1C425.6,199.9,422.6,197.4,422.6,192.2"/>
<path class="st0" d="M439.2,199.6l6-14.7h2.2l6,14.7h-2.1l-1.5-3.7h-7.2l-1.5,3.7H439.2z M443.3,194.3h6l-2.9-7.2h-0.2L443.3,194.3z
	"/>
<polygon class="st0" points="466.4,199.6 466.4,184.9 468.3,184.9 468.3,191.4 477,191.4 477,184.9 478.9,184.9 478.9,199.6 
	477,199.6 477,193.1 468.3,193.1 468.3,199.6 "/>
<rect x="484.4" y="184.9" class="st0" width="1.9" height="14.7"/>
<polygon class="st0" points="504.7,199.6 504.7,186.5 499.7,186.5 499.7,184.9 511.5,184.9 511.5,186.5 506.6,186.5 506.6,199.6 "/>
<polygon class="st0" points="516.1,199.6 516.1,184.9 526.4,184.9 526.4,186.5 517.9,186.5 517.9,191.4 525.5,191.4 525.5,193.1 
	517.9,193.1 517.9,198 526.5,198 526.5,199.6 "/>
<path class="st0" d="M530.7,192.2c0-5.2,3-7.7,7-7.7c3.2,0,6,1.9,6.4,5.1h-1.9c-0.4-2.2-2.3-3.4-4.5-3.4c-2.9,0-5.1,2-5.1,6
	c0,4,2.1,6,5.1,6c2.2,0,4.1-1.3,4.5-3.4h1.9c-0.4,3.3-3.2,5.1-6.4,5.1C533.7,199.9,530.7,197.4,530.7,192.2"/>
<polygon class="st0" points="549,199.6 549,184.9 550.9,184.9 550.9,191.4 559.7,191.4 559.7,184.9 561.5,184.9 561.5,199.6 
	559.7,199.6 559.7,193.1 550.9,193.1 550.9,199.6 "/>
<polygon class="st0" points="576,199.6 576,184.9 586.3,184.9 586.3,186.5 577.8,186.5 577.8,191.4 585.4,191.4 585.4,193.1 
	577.8,193.1 577.8,198 586.4,198 586.4,199.6 "/>
<polygon class="st0" points="600.4,199.6 600.4,184.9 610.8,184.9 610.8,186.5 602.3,186.5 602.3,191.4 609.8,191.4 609.8,193.1 
	602.3,193.1 602.3,198 610.9,198 610.9,199.6 "/>
<path class="st0" d="M615.2,195.5v-0.3h1.9v0.2c0,1.6,1.1,2.9,4,2.9c2.8,0,4-1.1,4-2.6c0-3.9-9.5-1-9.5-6.9c0-2.3,1.7-4.2,5.5-4.2
	c4,0,5.5,2,5.5,4.5v0.2h-1.9v-0.2c0-1.7-1-2.9-3.7-2.9c-2.5,0-3.6,1.1-3.6,2.6c0,4.1,9.5,1.2,9.5,6.9c0,2.3-1.8,4.2-5.9,4.2
	C617,199.9,615.2,197.9,615.2,195.5"/>
<polygon class="st0" points="635.8,199.6 635.8,186.5 630.9,186.5 630.9,184.9 642.7,184.9 642.7,186.5 637.7,186.5 637.7,199.6 "/>
<polygon class="st0" points="647.2,199.6 647.2,184.9 657.5,184.9 657.5,186.5 649.1,186.5 649.1,191.4 656.6,191.4 656.6,193.1 
	649.1,193.1 649.1,198 657.6,198 657.6,199.6 "/>
<polygon class="st0" points="666.7,199.6 666.7,186.5 661.8,186.5 661.8,184.9 673.6,184.9 673.6,186.5 668.6,186.5 668.6,199.6 "/>
<rect x="678.1" y="184.9" class="st0" width="1.9" height="14.7"/>
<path class="st0" d="M685,192.2c0-5.2,3-7.7,7-7.7c3.2,0,6,1.9,6.4,5.1h-1.9c-0.4-2.2-2.3-3.4-4.5-3.4c-2.9,0-5.1,2-5.1,6
	c0,4,2.1,6,5.1,6c2.2,0,4.1-1.3,4.5-3.4h1.9c-0.4,3.3-3.2,5.1-6.4,5.1C688,199.9,685,197.4,685,192.2"/>
<path class="st0" d="M701.6,199.6l6-14.7h2.2l6,14.7h-2.1l-1.5-3.7H705l-1.5,3.7H701.6z M705.7,194.3h6l-2.9-7.2h-0.2L705.7,194.3z"
	/>
<polygon class="st0" points="728.2,199.8 749.9,199.8 790,101.4 769.5,101.4 755.1,140.3 753.9,140.3 739.5,101.4 717.8,101.4 
	743.2,163.3 "/>
<g>
	<path class="st0" d="M797.9,150.8c-0.5-1.2-1.2-2.3-2.1-3.2c-0.9-0.9-2-1.6-3.2-2.1c-1.2-0.5-2.5-0.8-3.9-0.8s-2.7,0.3-3.9,0.8
		c-1.2,0.5-2.3,1.2-3.2,2.1c-0.9,0.9-1.6,2-2.1,3.2c-0.5,1.2-0.8,2.5-0.8,3.9c0,1.3,0.3,2.7,0.8,3.9c0.5,1.2,1.2,2.3,2.1,3.2
		c0.9,0.9,2,1.6,3.2,2.1c1.2,0.5,2.5,0.8,3.9,0.8s2.7-0.3,3.9-0.8c1.2-0.5,2.3-1.2,3.2-2.1c0.9-0.9,1.6-2,2.1-3.2
		c0.5-1.2,0.8-2.5,0.8-3.9C798.7,153.4,798.4,152,797.9,150.8z M788.7,163.4c-4.8,0-8.7-3.9-8.7-8.7c0-4.8,3.9-8.7,8.7-8.7
		s8.7,3.9,8.7,8.7C797.4,159.5,793.5,163.4,788.7,163.4z"/>
	<path class="st0" d="M792.4,156.6c-0.3-0.7-0.7-1.2-1.1-1.6c1.1-0.6,1.6-1.6,1.6-2.8c0-1-0.4-1.9-1.3-2.5c-0.8-0.6-1.9-0.9-3.3-0.9
		c-0.9,0-1.9,0.1-3.1,0.3l-0.2,0v11.4h1.9v-4.9h1.7c1.4,0,2.3,1.6,2.7,4.7l0,0.2h1.9l0-0.2C793.1,158.6,792.8,157.4,792.4,156.6z
		 M790.5,153.6c-0.4,0.3-1,0.5-1.9,0.5h-1.6v-3.5c0.4,0,0.8-0.1,1.3-0.1c1.8,0,2.7,0.6,2.7,1.7C791.1,152.9,790.9,153.3,790.5,153.6
		z"/>
</g>
</svg>
