<?xml version="1.0" encoding="utf-8"?>
<!-- Generator: Adobe Illustrator 25.3.1, SVG Export Plug-In . SVG Version: 6.00 Build 0)  -->
<svg version="1.1" id="Layer_1" xmlns="http://www.w3.org/2000/svg" xmlns:xlink="http://www.w3.org/1999/xlink" x="0px" y="0px"
	 viewBox="0 0 850 250" style="enable-background:new 0 0 850 250;" xml:space="preserve">
<style type="text/css">
	.st0{fill:#FFFFFF;}
</style>
<path class="st0" d="M60.6,148.7c0-1,0.1-1.9,0.2-2.8h19.4v0.7c0,3.2,4.7,5.4,9.6,5.4c4.4,0,9.7-1.1,9.7-5.2c0-9.8-39,0.5-39-25.4
	c0-12.8,12.2-20.4,28.3-20.4c19.8,0,29,7.4,29,18.4c0,0.7,0,1.3-0.1,2H98.4c0,0,0.1-0.4,0.1-0.8c0-2.4-2.3-5.3-9.6-5.3
	c-5.2,0-8.9,1.1-8.9,5c0,9.8,39-0.5,39,25.3c0,12.8-11.5,20.6-29.2,20.6C66.7,166.4,60.6,156.8,60.6,148.7"/>
<path class="st0" d="M125,133.7c0-22.1,14.5-32.6,34.6-32.6c20.2,0,34.6,10.6,34.6,32.6c0,22.1-14.4,32.6-34.6,32.6
	C139.6,166.4,125,155.8,125,133.7 M173.9,133.7c0-11.6-5.8-17.2-14.4-17.2c-8.9,0-14.2,5.5-14.2,17.2c0,11.6,5.5,17.2,14.4,17.2
	C168.4,150.9,173.9,145.4,173.9,133.7"/>
<path class="st0" d="M201.4,148.7c0-1,0.1-1.9,0.2-2.8H221v0.7c0,3.2,4.7,5.4,9.6,5.4c4.4,0,9.7-1.1,9.7-5.2c0-9.8-39,0.5-39-25.4
	c0-12.8,12.2-20.4,28.3-20.4c19.8,0,29,7.4,29,18.4c0,0.7,0,1.3-0.1,2h-19.4c0,0,0.1-0.4,0.1-0.8c0-2.4-2.3-5.3-9.6-5.3
	c-5.2,0-8.9,1.1-8.9,5c0,9.8,39-0.5,39,25.3c0,12.8-11.5,20.6-29.2,20.6C207.5,166.4,201.4,156.8,201.4,148.7"/>
<polygon class="st0" points="277.5,164.7 277.5,119.5 264.6,119.5 264.6,102.8 277.5,102.8 277.5,86.2 297.1,86.2 297.1,102.8 
	312.4,102.8 312.4,119.5 297.1,119.5 297.1,164.7 "/>
<path class="st0" d="M315.4,133.7c0-22.1,13.8-32.6,34.2-32.6c19.2,0,31.3,11.4,31.3,30.6c0,2.3-0.1,4.7-0.5,7.2h-45.5
	c1.2,8.8,6.7,13.2,14.4,13.2c4.7,0,8.6-1.8,10.8-4.8h19.2c-3.6,11-13.9,19.1-29.8,19.1C328.8,166.4,315.4,155.5,315.4,133.7
	 M361.5,126.3c-1.3-7.8-7.3-10.9-13.1-10.9c-5.9,0-11.4,4-13.1,10.9H361.5z"/>
<path class="st0" d="M390.6,164.7V130c0-20.4,12.2-28.9,32.2-28.9c19.9,0,32.2,8.5,32.2,28.9v34.7h-19.7V130
	c0-7.6-3.8-12.2-12.5-12.2c-8.6,0-12.5,4.7-12.5,12.2v34.7H390.6z"/>
<path class="st0" d="M465.6,85.6c0-6.5,4.7-11.2,11.2-11.2c6.5,0,11.2,4.7,11.2,11.2c0,6.5-4.7,11.2-11.2,11.2
	C470.3,96.8,465.6,92.1,465.6,85.6 M466.9,102.8h19.7v61.9h-19.7V102.8z"/>
<path class="st0" d="M519.5,157h-1.2l-1.2,7.7h-18.5V79h19.7v31.4h1.2c4.2-5.9,9.5-9.4,19.3-9.4c14.2,0,27.7,10.4,27.7,32.6
	c0,22.3-13.6,32.6-27.7,32.6C529,166.4,523.7,162.8,519.5,157 M546.3,133.7c0-11.3-5.9-16.6-14.2-16.6c-8.5,0-14.4,6.7-14.4,16.6
	c0,9.8,5.9,16.6,14.4,16.6C540.4,150.3,546.3,145,546.3,133.7"/>
<rect x="576.2" y="102.8" class="st0" width="19.7" height="61.9"/>
<rect x="607.8" y="79" class="st0" width="19.7" height="85.7"/>
<path class="st0" d="M638.2,85.6c0-6.5,4.7-11.2,11.2-11.2c6.5,0,11.2,4.7,11.2,11.2c0,6.5-4.7,11.2-11.2,11.2
	C642.9,96.8,638.2,92.1,638.2,85.6 M639.5,102.8h19.7v61.9h-19.7V102.8z"/>
<polygon class="st0" points="680.4,164.7 680.4,119.5 667.6,119.5 667.6,102.8 680.4,102.8 680.4,86.2 700.1,86.2 700.1,102.8 
	715.4,102.8 715.4,119.5 700.1,119.5 700.1,164.7 "/>
<path class="st0" d="M595.6,91.1h-7c-22.7,0-41.2-18.5-41.2-41.2v-1h7c22.7,0,41.2,18.5,41.2,41.2V91.1z"/>
<polygon class="st0" points="728.2,201.1 749.9,201.1 790,102.8 769.5,102.8 755.1,141.7 753.9,141.7 739.5,102.8 717.8,102.8 
	743.2,164.7 "/>
<g>
	<path class="st0" d="M797.9,150.8c-0.5-1.2-1.2-2.3-2.1-3.2c-0.9-0.9-2-1.6-3.2-2.1c-1.2-0.5-2.5-0.8-3.9-0.8s-2.7,0.3-3.9,0.8
		c-1.2,0.5-2.3,1.2-3.2,2.1c-0.9,0.9-1.6,2-2.1,3.2c-0.5,1.2-0.8,2.5-0.8,3.9c0,1.3,0.3,2.7,0.8,3.9c0.5,1.2,1.2,2.3,2.1,3.2
		c0.9,0.9,2,1.6,3.2,2.1c1.2,0.5,2.5,0.8,3.9,0.8s2.7-0.3,3.9-0.8c1.2-0.5,2.3-1.2,3.2-2.1c0.9-0.9,1.6-2,2.1-3.2
		c0.5-1.2,0.8-2.5,0.8-3.9C798.7,153.4,798.4,152,797.9,150.8z M788.7,163.4c-4.8,0-8.7-3.9-8.7-8.7c0-4.8,3.9-8.7,8.7-8.7
		s8.7,3.9,8.7,8.7C797.4,159.5,793.5,163.4,788.7,163.4z"/>
	<path class="st0" d="M792.4,156.6c-0.3-0.7-0.7-1.2-1.1-1.6c1.1-0.6,1.6-1.6,1.6-2.8c0-1-0.4-1.9-1.3-2.5c-0.8-0.6-1.9-0.9-3.3-0.9
		c-0.9,0-1.9,0.1-3.1,0.3l-0.2,0v11.4h1.9v-4.9h1.7c1.4,0,2.3,1.6,2.7,4.7l0,0.2h1.9l0-0.2C793.1,158.6,792.8,157.4,792.4,156.6z
		 M790.5,153.6c-0.4,0.3-1,0.5-1.9,0.5h-1.6v-3.5c0.4,0,0.8-0.1,1.3-0.1c1.8,0,2.7,0.6,2.7,1.7C791.1,152.9,790.9,153.3,790.5,153.6
		z"/>
</g>
</svg>
